Coordinates
version=1
nRows=26
nColumns=24
inDegrees=yes

Units are S.I. units (second, meters, Newtons, ...)
Angles are in degrees.

endheader
time	pelvis_tilt	pelvis_list	pelvis_rotation	pelvis_tx	pelvis_ty	pelvis_tz	hip_flexion_r	hip_adduction_r	hip_rotation_r	knee_angle_r	ankle_angle_r	subtalar_angle_r	mtp_angle_r	hip_flexion_l	hip_adduction_l	hip_rotation_l	knee_angle_l	ankle_angle_l	subtalar_angle_l	mtp_angle_l	lumbar_extension	lumbar_bending	lumbar_rotation
      0.46100000	      1.18520866	      4.90527056	      1.60889751	     -0.76040467	      1.00755092	      0.25740170	     20.80627494	     -2.91135128	     -5.22387067	     -5.93335446	      5.04292092	     -9.62221442	      7.85868410	    -16.13689259	      8.55466684	      7.46365834	     -5.55262540	      9.15910963	    -14.85080329	      3.05037501	     -5.46276862	     -6.62799662	     -2.98731693
      0.46516667	      1.23622366	      4.89397786	      1.63665535	     -0.75442239	      1.00712035	      0.25753837	     20.66217643	     -2.81725943	     -4.95054104	     -6.03036965	      5.01345226	     -9.82201271	      7.86851560	    -16.26274759	      8.51437177	      7.37177440	     -6.13782033	      9.27846531	    -14.55488298	      3.11711036	     -5.46365665	     -6.58289485	     -2.96130021
      0.46933333	      1.27199805	      4.88406071	      1.66891615	     -0.74840189	      1.00669649	      0.25765760	     20.54730017	     -2.73302940	     -4.71789380	     -6.22584417	      4.99983923	     -9.91847586	      7.89755091	    -16.33458577	      8.47477927	      7.24915108	     -6.80517850	      9.41991515	    -14.17926273	      3.20946494	     -5.43674544	     -6.53801320	     -3.02608278
      0.47350000	      1.31242611	      4.86674683	      1.69381009	     -0.74234645	      1.00631272	      0.25778855	     20.41943329	     -2.63802507	     -4.44474123	     -6.46452835	      4.92723931	    -10.06702430	      7.94487486	    -16.38469008	      8.42701177	      7.08497376	     -7.52203025	      9.54022815	    -13.77782218	      3.33216888	     -5.41220854	     -6.47919598	     -3.05620252
      0.47766667	      1.35535250	      4.85017978	      1.71269448	     -0.73626209	      1.00596218	      0.25793252	     20.28536693	     -2.54224463	     -4.14558645	     -6.75013116	      4.82353002	    -10.23847810	      8.00689506	    -16.41268336	      8.37964722	      6.89959163	     -8.28570495	      9.63273376	    -13.35648744	      3.48165448	     -5.38341048	     -6.42366732	     -3.08104147
      0.48183333	      1.38835480	      4.83122814	      1.72774952	     -0.73014445	      1.00563427	      0.25808435	     20.15925134	     -2.44365066	     -3.83428715	     -7.07910823	      4.67027558	    -10.42563609	      8.08646787	    -16.39275568	      8.32769818	      6.66901727	     -9.11594223	      9.71008302	    -12.87604109	      3.67238143	     -5.34059136	     -6.36015771	     -3.09430683
      0.48600000	      1.44199958	      4.82327065	      1.71855703	     -0.72403758	      1.00534377	      0.25826477	     20.02853620	     -2.35184393	     -3.49171565	     -7.47652913	      4.48387216	    -10.62559502	      8.16532786	    -16.37798342	      8.29438072	      6.45083802	     -9.97941527	      9.77507133	    -12.42779817	      3.86284325	     -5.33004171	     -6.31021758	     -3.10248356
      0.49016667	      1.45693177	      4.80003804	      1.72786040	     -0.71786476	      1.00506070	      0.25843505	     19.91718439	     -2.25012318	     -3.17309161	     -7.87087687	      4.22646427	    -10.84678505	      8.25745029	    -16.26525656	      8.23197076	      6.13289361	    -10.94371027	      9.78157096	    -11.86938167	      4.09815808	     -5.25145261	     -6.23669668	     -3.09983626
      0.49433333	      1.55269577	      4.75022028	      1.72192982	     -0.71166154	      1.00490099	      0.25862017	     19.70869873	     -2.12088902	     -2.88014945	     -8.27316214	      3.99266695	    -10.99831978	     10.18500906	    -16.20592295	      8.13022430	      5.72256451	    -11.95896175	      9.67081680	    -11.31276525	      9.35294937	     -5.25863628	     -6.12525176	     -3.06473181
      0.49850000	      1.55540360	      4.73215266	      1.75038953	     -0.70547830	      1.00467735	      0.25878291	     19.60081813	     -2.03370653	     -2.56944942	     -8.70586740	      3.67704960	    -11.30661872	     10.16968680	    -16.00362912	      8.06142785	      5.40920144	    -13.06612837	      9.63134916	    -10.72896161	      9.45928488	     -5.17399733	     -6.06165339	     -3.05799121
      0.50266667	      1.58200951	      4.72330143	      1.74759974	     -0.69930618	      1.00448682	      0.25899966	     19.48281839	     -1.95022589	     -2.24312766	     -9.18259031	      3.40619305	    -11.52818948	     10.17101624	    -15.78442115	      8.00000829	      5.01652198	    -14.23988368	      9.52683011	    -10.10404122	      9.59447546	     -5.10835228	     -6.01930428	     -3.02942417
      0.50683333	      1.61525789	      4.69424240	      1.74974088	     -0.69312863	      1.00434314	      0.25920137	     19.35739919	     -1.85315324	     -1.96357696	     -9.67520128	      3.09478125	    -11.74535431	     10.17976954	    -15.52375324	      7.90636863	      4.57539494	    -15.50031421	      9.39255744	     -9.42587347	      9.78881063	     -5.05263861	     -5.93935527	     -2.99622947
      0.51100000	      1.64572232	      4.66367769	      1.74975276	     -0.68695647	      1.00422527	      0.25942507	     19.23902096	     -1.75669577	     -1.69745159	    -10.18954428	      2.79814696	    -11.95427613	     10.19288732	    -15.21826703	      7.80166746	      4.10816548	    -16.82914651	      9.20517270	     -8.73477042	     10.04245687	     -4.99420759	     -5.85958565	     -2.95438224
      0.51516667	      1.67017001	      4.63365324	      1.75140705	     -0.68080676	      1.00412560	      0.25965274	     19.13395166	     -1.66659137	     -1.45644781	    -10.72665003	      2.50955872	    -12.14630170	     10.20709576	    -14.85261250	      7.68721296	      3.61497821	    -18.24482362	      8.96115996	     -8.02811862	     10.35020150	     -4.93066589	     -5.77779895	     -2.90988708
      0.51933333	      1.70755140	      4.59452578	      1.75317778	     -0.67468206	      1.00406262	      0.25989123	     19.01907076	     -1.57142431	     -1.24571399	    -11.27911386	      2.24161514	    -12.32809353	     10.22028523	    -14.45532535	      7.54931720	      3.09413343	    -19.73499534	      8.66824986	     -7.30804158	     10.72480824	     -4.88537443	     -5.68883240	     -2.85733865
      0.52350000	      1.76824237	      4.53080707	      1.75490748	     -0.66857483	      1.00406154	      0.26013745	     18.87578277	     -1.45352110	     -1.05892532	    -11.83055927	      1.95941410	    -12.54367716	     10.39380260	    -14.04103504	      7.36845310	      2.54269507	    -21.26723150	      8.18196779	     -6.73161528	     19.15468318	     -4.87403595	     -5.55264882	     -2.80223309
      0.52766667	      1.77116097	      4.50873475	      1.75638521	     -0.66251180	      1.00400237	      0.26039796	     18.82462219	     -1.38837339	     -0.90645131	    -12.44882801	      1.79444847	    -12.62158589	     10.38737876	    -13.52041028	      7.23056649	      2.02601685	    -22.87940772	      7.70529650	     -6.06858409	     19.21386228	     -4.79404771	     -5.49709011	     -2.75291270
      0.53183333	      1.79838428	      4.45547664	      1.76057487	     -0.65648185	      1.00400031	      0.26066081	     18.73743655	     -1.29335035	     -0.77633865	    -13.04834750	      1.62798328	    -12.73339027	     10.37420864	    -12.97702297	      7.04160340	      1.48296201	    -24.56327584	      7.18983213	     -5.39783252	     19.32571449	     -4.74810626	     -5.38808119	     -2.69089237
      0.53600000	      1.83785449	      4.38875041	      1.76855180	     -0.65051630	      1.00401965	      0.26093152	     18.64760521	     -1.18859112	     -0.67769134	    -13.67074390	      1.48202482	    -12.86750025	     10.34645930	    -12.40079391	      6.82500678	      0.94882654	    -26.32040103	      6.67658243	     -4.74630596	     19.53224991	     -4.73499212	     -5.26067931	     -2.61992665
      0.54016667	      1.86091993	      4.32338990	      1.77719253	     -0.64457672	      1.00404860	      0.26121791	     18.56998262	     -1.08781153	     -0.59135338	    -14.28361678	      1.40026899	    -12.94938751	     10.31067624	    -11.77197111	      6.59870714	      0.42503550	    -28.11272249	      6.03194342	     -4.15859403	     19.77716443	     -4.69772022	     -5.14313527	     -2.55349535
      0.54433333	      1.89252714	      4.25203448	      1.78310576	     -0.63866067	      1.00411559	      0.26151611	     18.47070989	     -0.98374647	     -0.52183888	    -14.87187035	      1.38380232	    -12.98421721	     10.27623931	    -11.12531533	      6.35504765	     -0.09158505	    -29.92926494	      5.28546806	     -3.64434121	     19.99679737	     -4.65946439	     -5.02567934	     -2.48731424
      0.54850000	      1.92506187	      4.16542639	      1.79215948	     -0.63284861	      1.00416995	      0.26181887	     18.39456778	     -0.86664791	     -0.48723643	    -15.50521006	      1.36901995	    -13.05959094	     10.21700237	    -10.43659377	      6.08551741	     -0.58175969	    -31.80752717	      4.58691629	     -3.13077283	     20.32275154	     -4.66058425	     -4.87949963	     -2.40411529
      0.55266667	      1.94722594	      4.06927284	      1.80439766	     -0.62702455	      1.00426939	      0.26213399	     18.28813707	     -0.73677589	     -0.42946370	    -16.05931666	      1.42340232	    -13.12826699	      8.85953299	     -9.72166158	      5.79672965	     -1.05007438	    -33.66857664	      3.66436172	     -2.84160355	     26.83138866	     -4.62814721	     -4.72339993	     -2.31944081
      0.55683333	      1.98060626	      3.97486132	      1.81513702	     -0.62128831	      1.00437834	      0.26244406	     18.18381812	     -0.61695138	     -0.43258516	    -16.63498362	      1.52861514	    -13.09266671	      8.86680349	     -8.98781591	      5.50438979	     -1.49479107	    -35.57324497	      2.83771215	     -2.48121288	     26.84616133	     -4.62779624	     -4.57743788	     -2.24996273
      0.56100000	      2.00551271	      3.86641803	      1.82700446	     -0.61558982	      1.00449750	      0.26276768	     18.07180293	     -0.48053804	     -0.43582151	    -17.17499661	      1.65239712	    -13.09429793	      8.86367801	     -8.22552713	      5.19389981	     -1.90589016	    -37.48674967	      1.99631072	     -2.20723878	     26.86219063	     -4.61842287	     -4.42243983	     -2.16521443
      0.56516667	      2.03769951	      3.75572819	      1.83853761	     -0.60994814	      1.00464872	      0.26309803	     17.93623045	     -0.34144100	     -0.44664310	    -17.67931010	      1.81079403	    -13.09200558	      8.85344851	     -7.45536700	      4.87737935	     -2.29035176	    -39.39593773	      1.14413213	     -2.01372054	     26.86874014	     -4.62462470	     -4.26255313	     -2.07721687
